<svg xmlns="http://www.w3.org/2000/svg" viewBox="0 0 219.86 141.9"><defs><style>.cls-1{fill:#fff;fill-rule:evenodd;}</style></defs><title>资源 2</title><g id="图层_2" data-name="图层 2"><g id="鍥惧眰_1" data-name="鍥惧眰 1"><path class="cls-1" d="M111.81,64.07l-27,15.62a2,2,0,0,1-3.15-1.78V2.12C81.52.28,83.2-.68,84.88.56l32.6,18.81a3.78,3.78,0,0,1,1.89,3.27V55.36l31.3,18.07c1.29.74,1.41,2.27.22,3l-36,20.79a2,2,0,0,1-3.08-1.79V64.07ZM89.17,68.42l22.64-13.07V24.81L89.17,11.74V68.42Zm30.21-4.36v21.8L138.26,75Z"/><path class="cls-1" d="M0,124.66a9.71,9.71,0,0,0,10,9.88,9.86,9.86,0,1,0,0-19.72,9.69,9.69,0,0,0-10,9.81v0Zm4.45,0a5.52,5.52,0,1,1,5.53,5.7,5.53,5.53,0,0,1-5.53-5.7v0Zm18.06,15.85H27V132a8.3,8.3,0,0,0,6.35,2.53c5.47,0,9.23-4.44,9.23-9.74,0-4.51-2.75-10-9.26-10a8.24,8.24,0,0,0-6.59,3v-2.41H22.51v25.15Zm15.58-15.82a5.67,5.67,0,1,1-5.71-5.77,5.61,5.61,0,0,1,5.71,5.77Zm25.32,1.46a10,10,0,0,0-2.75-8.52,9.54,9.54,0,0,0-7-2.85,9.9,9.9,0,0,0,.07,19.79,9.19,9.19,0,0,0,5.33-1.63,10.49,10.49,0,0,0,3.77-4.68H58.29a4.8,4.8,0,0,1-4.48,2.51,5.12,5.12,0,0,1-5.4-4.62Zm-14.93-3.39a5,5,0,0,1,5.26-4.21A5.13,5.13,0,0,1,59,122.76ZM65.92,134h4.45V123.71c0-2.61,1.09-4.72,4.24-4.75s4,2.14,4,4.92V134H83.1V122.18c0-3.19-1.66-7.36-7.23-7.4a6.76,6.76,0,0,0-5.77,2.65v-2.07H65.92V134Zm21,0H99.29v-2.48H89.72V108.88H86.9V134ZM99,124.86v0a9.7,9.7,0,1,1,9.68,9.64A9.45,9.45,0,0,1,99,124.83Zm2.48,0v0a7.2,7.2,0,1,0,7.2-7.33,7.11,7.11,0,0,0-7.2,7.33Zm18.71,0a9.69,9.69,0,1,0,9.67-9.64,9.42,9.42,0,0,0-9.67,9.64v0Zm2.48,0a7.2,7.2,0,1,1,7.19,7.3,7.11,7.11,0,0,1-7.19-7.3v0ZM143.1,134h2.78V122.08L156.71,134h3.5l-11.58-12.6,10.53-12.52H156.1L145.88,121V108.88H143.1V134Zm35-8.42H161.43a7,7,0,0,0,7.13,6.75,6.76,6.76,0,0,0,6.28-3.76h2.62a9.7,9.7,0,0,1-3.7,4.44,9.53,9.53,0,0,1-5.2,1.49,9.42,9.42,0,0,1-9.64-9.6,9.6,9.6,0,1,1,19.15.68Zm-16.6-2h14.12a7.12,7.12,0,0,0-14.12,0ZM180.79,134h2.51V124c0-3.8,2.3-6.36,6.06-6.4,4.11-.06,5.75,2.55,5.75,6V134h2.48V123.61c0-4.45-2-8.32-7.67-8.39a7.25,7.25,0,0,0-6.76,3.46v-3h-2.37V134Zm39.07-18.27h-2.47V119c-1-1.9-3.8-3.74-7.4-3.74a9.64,9.64,0,0,0,0,19.28c3.53,0,6.12-1.58,7.36-3.73v1.7a7.07,7.07,0,0,1-7.06,7.26,6.53,6.53,0,0,1-6.37-3.73H201.2a9.23,9.23,0,0,0,9,5.9c5.81,0,9.64-4.35,9.64-10V115.73Zm-16.9,9.1a7.1,7.1,0,0,1,7.26-7.26,6.72,6.72,0,0,1,5.57,2.54,7.85,7.85,0,0,1,1.66,4.79,7.68,7.68,0,0,1-2,5.16A7.33,7.33,0,0,1,203,124.83Z"/></g></g></svg>