<?xml version="1.0" encoding="UTF-8"?>
<svg width="54px" height="62px" viewBox="0 0 54 62" version="1.1" xmlns="http://www.w3.org/2000/svg" xmlns:xlink="http://www.w3.org/1999/xlink">
    <title>icon_user</title>
    <g id="wireframe2_web" stroke="none" stroke-width="1" fill="none" fill-rule="evenodd">
        <g id="A_Home1920" transform="translate(-933.000000, -1973.000000)" stroke-width="1.5">
            <g id="Data" transform="translate(0.000000, 1874.000000)">
                <g id="contributors" transform="translate(881.000000, 96.000000)">
                    <g id="icon_user" transform="translate(53.000000, 4.000000)">
                        <path d="M26.1289355,22.5022258 C28.6411935,22.5022258 31.0953871,20.9780323 33.0376452,18.2093226 C34.7524839,15.7667419 35.7753871,12.7464194 35.7753871,10.1296452 C35.7753871,4.81093548 31.4476452,0.48416129 26.1289355,0.48416129 C20.8102258,0.48416129 16.4824839,4.81093548 16.4824839,10.1296452 C16.4824839,12.7464194 17.5063548,15.7667419 19.2202258,18.2093226 C21.1634516,20.9780323 23.6166774,22.5022258 26.1289355,22.5022258 Z" id="Stroke-1" stroke="#000000" stroke-linecap="round"></path>
                        <path d="M42.6877742,54.1589032 L9.56970968,54.1589032 C7.39712903,54.1589032 5.63487097,52.3976129 5.63487097,50.2240645 L5.63487097,32.1650323 C5.63487097,29.9924516 7.39712903,28.2301935 9.56970968,28.2301935 L42.6877742,28.2301935 C44.8613226,28.2301935 46.6226129,29.9924516 46.6226129,32.1650323 L46.6226129,50.2240645 C46.6226129,52.3976129 44.8613226,54.1589032 42.6877742,54.1589032 Z" id="Stroke-3" stroke="#000000" stroke-linecap="round"></path>
                        <line x1="5.77180645" y1="59.5159355" x2="46.4856774" y2="59.5159355" id="Stroke-5" stroke="#000000" stroke-linecap="round"></line>
                        <path d="M26.1289355,33.801871 C21.9657097,33.801871 18.5892581,37.1773548 18.5892581,41.3415484 C18.5892581,45.5047742 21.9657097,48.8802581 26.1289355,48.8802581 C30.293129,48.8802581 33.6686129,45.5047742 33.6686129,41.3415484 C33.6637742,37.1792903 30.2911935,33.8067097 26.1289355,33.801871 Z" id="Stroke-7" stroke="#5DCB9E" stroke-linejoin="round" stroke-dasharray="2.038,2.038"></path>
                        <path d="M39.3786774,19.8210968 C44.705129,19.8230323 49.1896452,23.8052903 49.8215806,29.094 L52.0173871,47.5381935 C52.1693226,48.8146452 51.1725484,49.9372258 49.8864194,49.9372258" id="Stroke-9" stroke="#000000" stroke-linecap="round"></path>
                        <path d="M2.37154839,49.9373226 L2.37154839,49.9373226 C1.08541935,49.9373226 0.0896129032,48.8147419 0.240580645,47.5382903 L2.4363871,29.0940968 C3.06832258,23.8053871 7.55283871,19.823129 12.8792903,19.8211935" id="Stroke-11" stroke="#000000" stroke-linecap="round"></path>
                    </g>
                </g>
            </g>
        </g>
    </g>
</svg>