<?xml version="1.0" encoding="UTF-8"?>
<svg width="1140px" height="292px" viewBox="0 0 1140 292" version="1.1" xmlns="http://www.w3.org/2000/svg" xmlns:xlink="http://www.w3.org/1999/xlink">
    <title>bg</title>
    <defs>
        <rect id="path-1" x="0" y="0" width="1140" height="292"></rect>
    </defs>
    <g id="wireframe2_web" stroke="none" stroke-width="1" fill="none" fill-rule="evenodd">
        <g id="A_Home" transform="translate(-180.000000, -1874.000000)">
            <g id="bg" transform="translate(180.000000, 1874.000000)">
                <mask id="mask-2" fill="white">
                    <use xlink:href="#path-1"></use>
                </mask>
                <use id="Rectangle" fill="#FFFFFF" xlink:href="#path-1"></use>
                <g id="Group-2" opacity="0.501813616" mask="url(#mask-2)">
                    <g transform="translate(405.000000, 84.000000)">
                        <circle id="椭圆形" stroke="none" fill="#E7E7E7" fill-rule="evenodd" cx="33" cy="41" r="11"></circle>
                        <line x1="33.5" y1="40.5" x2="5.5" y2="87.5" id="直线-5" stroke="#E7E7E7" stroke-width="1" fill="none" stroke-linecap="square"></line>
                        <line x1="33.5" y1="41.5" x2="19.5" y2="15.5" id="直线-6" stroke="#E7E7E7" stroke-width="1" fill="none" stroke-linecap="square"></line>
                        <line x1="33.5" y1="40.5" x2="92.5" y2="8.5" id="直线-8" stroke="#E7E7E7" stroke-width="1" fill="none" stroke-linecap="square"></line>
                        <circle id="椭圆形" stroke="none" fill="#E7E7E7" fill-rule="evenodd" cx="92" cy="8" r="8"></circle>
                        <circle id="椭圆形" stroke="none" fill="#E7E7E7" fill-rule="evenodd" cx="20" cy="16" r="5"></circle>
                        <circle id="椭圆形" stroke="none" fill="#E7E7E7" fill-rule="evenodd" cx="6" cy="88" r="6"></circle>
                        <line x1="33.5" y1="40.5" x2="44.5" y2="64.5" id="直线-7" stroke="#E7E7E7" stroke-width="1" fill="none" stroke-linecap="square"></line>
                        <circle id="椭圆形" stroke="none" fill="#E7E7E7" fill-rule="evenodd" cx="45" cy="65" r="4"></circle>
                    </g>
                </g>
                <path d="M92,104.000131 C92,115.045951 83.0459512,124 72.0001308,124 C60.9545719,124 52,115.045951 52,104.000131 C52,92.9543103 60.9545719,84 72.0001308,84 C83.0459512,84 92,92.9543103 92,104.000131" id="Fill-1" fill="#88DEC5" mask="url(#mask-2)"></path>
                <path d="M703.376154,229.335019 L724.484626,263.876154 L682.267683,263.876154 L703.376154,229.335019 Z" id="三角形" stroke="#000000" mask="url(#mask-2)" transform="translate(703.376154, 246.376154) rotate(-45.000000) translate(-703.376154, -246.376154) "></path>
                <polygon id="三角形" fill="#FFD993" mask="url(#mask-2)" transform="translate(690.648232, 233.648232) rotate(-45.000000) translate(-690.648232, -233.648232) " points="690.648232 211.648232 717.648232 255.648232 663.648232 255.648232"></polygon>
                <path d="M1077.06374,68.1103826 C1077.44266,68.6452327 1077.8217,69.1799639 1078.20063,69.7146952 C1078.47026,70.0951016 1078.96361,70.0951016 1079.23313,69.7146952 C1081.88428,65.9728833 1084.53531,62.2310714 1087.18634,58.4892595 C1087.43887,58.1326928 1087.65795,57.7995129 1087.84356,57.4897198 C1091.1366,62.2544793 1093.60351,65.7947002 1095.24429,68.1103826 C1095.62321,68.6452327 1096.00213,69.1799639 1096.38106,69.7146952 C1096.65057,70.0951016 1097.14393,70.0951016 1097.41356,69.7146952 C1100.06519,65.9728833 1102.71705,62.2310714 1105.3688,58.4892595 C1105.58045,58.1906173 1105.79205,57.8920121 1106.00366,57.5934232 C1106.11525,57.4359795 1108.59116,60.9416326 1113.43142,68.1103826 C1113.93681,68.8234368 1114.31589,69.3582077 1114.56866,69.7146952 C1114.8383,70.0949828 1115.33153,70.0951016 1115.60117,69.7146952 C1118.25291,65.9728833 1120.90478,62.2310714 1123.55641,58.4892595 C1123.7722,58.1847687 1123.98795,57.8803164 1124.2037,57.5758807 C1124.31252,57.4223356 1126.78537,60.9338363 1131.62225,68.1103826 C1132.12796,68.8234368 1132.50724,69.3582077 1132.7601,69.7146952 C1133.02985,70.0951016 1133.52273,70.0951016 1133.7926,69.7146952 C1136.44626,65.9728833 1139.10016,62.2310714 1141.75382,58.4892595 C1142.1331,57.9544094 1142.51238,57.4196782 1142.89166,56.8849469 C1143.33575,56.2587376 1142.29942,55.6644861 1141.85916,56.2853494 C1139.20538,60.0271613 1136.5516,63.7689732 1133.89794,67.5107851 C1133.64509,67.8672726 1133.43526,68.155698 1133.26846,68.3760615 C1129.96296,63.7154395 1127.4839,60.219973 1125.83126,57.8896619 C1125.45198,57.3549307 1125.0727,56.8200806 1124.69342,56.2853494 C1124.42366,55.9050617 1123.93055,55.9048241 1123.66091,56.2853494 C1121.00917,60.0271613 1118.35742,63.7689732 1115.70555,67.5107851 C1115.45294,67.8672726 1115.24955,68.1642381 1115.0954,68.4016816 C1111.78325,63.7296729 1109.29913,60.2256663 1107.64306,57.8896619 C1107.26402,57.3549307 1106.88485,56.8200806 1106.50581,56.2853494 C1106.23618,55.9049429 1105.74294,55.9048241 1105.47331,56.2853494 C1102.82144,60.0271613 1100.16969,63.7689732 1097.51795,67.5107851 C1097.30101,67.8169167 1097.08404,68.1230873 1096.86708,68.4292522 C1096.75907,68.5816685 1094.28992,65.0684718 1089.45964,57.8896619 C1088.95449,57.1766077 1088.5756,56.6418369 1088.32299,56.2853494 C1088.05347,55.9049429 1087.56,55.9049429 1087.2906,56.2853494 C1085.52317,58.7798907 1082.65708,62.788976 1078.69234,68.3126053 C1075.51712,63.8585177 1073.04564,60.3842032 1071.27789,57.8896619 C1070.89885,57.3549307 1070.51992,56.8200806 1070.14088,56.2853494 C1069.70121,55.6649614 1068.66405,56.257906 1069.10838,56.8849469 C1071.76024,60.6267588 1074.41187,64.3685707 1077.06374,68.1103826 Z" id="Fill-1" fill="#393939" mask="url(#mask-2)"></path>
                <path d="M1089,56.0001308 C1089,67.0459512 1080.04595,76 1069.00013,76 C1057.95457,76 1049,67.0459512 1049,56.0001308 C1049,44.9543103 1057.95457,36 1069.00013,36 C1080.04595,36 1089,44.9543103 1089,56.0001308" id="Fill-1" fill="#5C89FF" mask="url(#mask-2)"></path>
            </g>
        </g>
    </g>
</svg>