<?xml version="1.0" encoding="UTF-8"?>
<svg width="375px" height="788px" viewBox="0 0 375 788" version="1.1" xmlns="http://www.w3.org/2000/svg" xmlns:xlink="http://www.w3.org/1999/xlink">
    <title>bg</title>
    <defs>
        <rect id="path-1" x="0" y="0" width="375" height="788"></rect>
    </defs>
    <g id="wireframe2_mobile" stroke="none" stroke-width="1" fill="none" fill-rule="evenodd">
        <g id="A_Home_mobile" transform="translate(0.000000, -1712.000000)">
            <g id="bg" transform="translate(0.000000, 1712.000000)">
                <mask id="mask-2" fill="white">
                    <use xlink:href="#path-1"></use>
                </mask>
                <use id="Rectangle" fill="#FFFFFF" xlink:href="#path-1"></use>
                <g id="Group-7" mask="url(#mask-2)">
                    <g transform="translate(257.000000, 476.000000)" id="三角形">
                        <path d="M47.7279221,30.6867867 L68.8363936,65.2279221 L26.6194505,65.2279221 L47.7279221,30.6867867 Z" stroke="#000000" stroke-width="1" fill="none" transform="translate(47.727922, 47.727922) rotate(-45.000000) translate(-47.727922, -47.727922) "></path>
                        <polygon stroke="none" fill="#FFD993" fill-rule="evenodd" transform="translate(35.000000, 35.000000) rotate(-45.000000) translate(-35.000000, -35.000000) " points="35 13 62 57 8 57"></polygon>
                    </g>
                </g>
                <g id="Group-9" mask="url(#mask-2)">
                    <g transform="translate(15.000000, 589.000000)" id="Fill-1">
                        <path d="M28.0637356,32.1103826 C28.442659,32.6452327 28.821702,33.1799639 29.2006254,33.7146952 C29.4702601,34.0951016 29.9636138,34.0951016 30.2331289,33.7146952 C32.8842775,29.9728833 35.5353065,26.2310714 38.1863356,22.4892595 C38.4388714,22.1326928 38.657947,21.7995129 38.8435622,21.4897198 C42.1365976,26.2544793 44.6035059,29.7947002 46.2442872,32.1103826 C46.6232106,32.6452327 47.002134,33.1799639 47.3810574,33.7146952 C47.6505725,34.0951016 48.1439263,34.0951016 48.413561,33.7146952 C51.0651878,29.9728833 53.7170539,26.2310714 56.3688003,22.4892595 C56.5804451,22.1906173 56.7920527,21.8920121 57.0036646,21.5934232 C57.115246,21.4359795 59.5911629,24.9416326 64.4314153,32.1103826 C64.9368059,32.8234368 65.3158887,33.3582077 65.5686638,33.7146952 C65.8382985,34.0949828 66.3315326,34.0951016 66.6011673,33.7146952 C69.2529138,29.9728833 71.9047798,26.2310714 74.5564067,22.4892595 C74.7721963,22.1847687 74.9879472,21.8803164 75.2037035,21.5758807 C75.3125222,21.4223356 77.785371,24.9338363 82.62225,32.1103826 C83.1279596,32.8234368 83.5072417,33.3582077 83.7600964,33.7146952 C84.0298507,34.0951016 84.5227261,34.0951016 84.7926,33.7146952 C87.4462596,29.9728833 90.1001583,26.2310714 92.7538179,22.4892595 C93.1331,21.9544094 93.5123822,21.4196782 93.8916643,20.8849469 C94.3357544,20.2587376 93.2994246,19.6644861 92.8591608,20.2853494 C90.2053816,24.0271613 87.5516024,27.7689732 84.8979428,31.5107851 C84.6450881,31.8672726 84.4352595,32.155698 84.2684571,32.3760615 C80.9629631,27.7154395 78.4838982,24.219973 76.8312624,21.8896619 C76.4519803,21.3549307 76.0726982,20.8200806 75.693416,20.2853494 C75.4236618,19.9050617 74.9305472,19.9048241 74.6609125,20.2853494 C72.0091661,24.0271613 69.3574196,27.7689732 66.7055536,31.5107851 C66.452938,31.8672726 66.2495539,32.1642381 66.0954014,32.4016816 C62.7832489,27.7296729 60.2991345,24.2256663 58.6430582,21.8896619 C58.2640152,21.3549307 57.8848527,20.8200806 57.5058097,20.2853494 C57.236175,19.9049429 56.7429408,19.9048241 56.4733062,20.2853494 C53.8214401,24.0271613 51.1696937,27.7689732 48.5179472,31.5107851 C48.301015,31.8169167 48.0840436,32.1230873 47.8670778,32.4292522 C47.759067,32.5816685 45.28992,29.0684718 40.4596369,21.8896619 C39.9544854,21.1766077 39.5756018,20.6418369 39.3229862,20.2853494 C39.0534711,19.9049429 38.5599978,19.9049429 38.2906023,20.2853494 C36.5231699,22.7798907 33.6570825,26.788976 29.6923402,32.3126053 C26.5171244,27.8585177 24.0456408,24.3842032 22.2778896,21.8896619 C21.8988466,21.3549307 21.5199232,20.8200806 21.1408802,20.2853494 C20.7012142,19.6649614 19.6640474,20.257906 20.1083766,20.8849469 C22.7602427,24.6267588 25.4118696,28.3685707 28.0637356,32.1103826 Z" fill="#393939"></path>
                        <path d="M40,20.0001308 C40,31.0459512 31.0459512,40 20.0001308,40 C8.95457191,40 0,31.0459512 0,20.0001308 C0,8.95431034 8.95457191,0 20.0001308,0 C31.0459512,0 40,8.95431034 40,20.0001308" fill="#5C89FF"></path>
                    </g>
                </g>
                <circle id="椭圆形" fill="#FFCECE" mask="url(#mask-2)" cx="89" cy="0" r="27"></circle>
                <g id="Group-3" opacity="0.496326265" mask="url(#mask-2)">
                    <g transform="translate(29.000000, 300.000000)">
                        <circle id="椭圆形" stroke="none" fill="#E7E7E7" fill-rule="evenodd" cx="33" cy="41" r="11"></circle>
                        <line x1="33.5" y1="40.5" x2="5.5" y2="87.5" id="直线-5" stroke="#E7E7E7" stroke-width="1" fill="none" stroke-linecap="square"></line>
                        <line x1="33.5" y1="41.5" x2="19.5" y2="15.5" id="直线-6" stroke="#E7E7E7" stroke-width="1" fill="none" stroke-linecap="square"></line>
                        <line x1="33.5" y1="40.5" x2="92.5" y2="8.5" id="直线-8" stroke="#E7E7E7" stroke-width="1" fill="none" stroke-linecap="square"></line>
                        <circle id="椭圆形" stroke="none" fill="#E7E7E7" fill-rule="evenodd" cx="92" cy="8" r="8"></circle>
                        <circle id="椭圆形" stroke="none" fill="#E7E7E7" fill-rule="evenodd" cx="20" cy="16" r="5"></circle>
                        <circle id="椭圆形" stroke="none" fill="#E7E7E7" fill-rule="evenodd" cx="6" cy="88" r="6"></circle>
                        <line x1="33.5" y1="40.5" x2="44.5" y2="64.5" id="直线-7" stroke="#E7E7E7" stroke-width="1" fill="none" stroke-linecap="square"></line>
                        <circle id="椭圆形" stroke="none" fill="#E7E7E7" fill-rule="evenodd" cx="45" cy="65" r="4"></circle>
                    </g>
                </g>
                <path d="M375,768.000131 C375,779.045951 366.045951,788 355.000131,788 C343.954572,788 335,779.045951 335,768.000131 C335,756.95431 343.954572,748 355.000131,748 C366.045951,748 375,756.95431 375,768.000131" id="Fill-1" fill="#88DEC5" mask="url(#mask-2)"></path>
                <path d="M309.063736,147.110383 C309.442659,147.645233 309.821702,148.179964 310.200625,148.714695 C310.47026,149.095102 310.963614,149.095102 311.233129,148.714695 C313.884278,144.972883 316.535307,141.231071 319.186336,137.489259 C319.438871,137.132693 319.657947,136.799513 319.843562,136.48972 C323.136598,141.254479 325.603506,144.7947 327.244287,147.110383 C327.623211,147.645233 328.002134,148.179964 328.381057,148.714695 C328.650573,149.095102 329.143926,149.095102 329.413561,148.714695 C332.065188,144.972883 334.717054,141.231071 337.3688,137.489259 C337.580445,137.190617 337.792053,136.892012 338.003665,136.593423 C338.115246,136.43598 340.591163,139.941633 345.431415,147.110383 C345.936806,147.823437 346.315889,148.358208 346.568664,148.714695 C346.838298,149.094983 347.331533,149.095102 347.601167,148.714695 C350.252914,144.972883 352.90478,141.231071 355.556407,137.489259 C355.772196,137.184769 355.987947,136.880316 356.203703,136.575881 C356.312522,136.422336 358.785371,139.933836 363.62225,147.110383 C364.12796,147.823437 364.507242,148.358208 364.760096,148.714695 C365.029851,149.095102 365.522726,149.095102 365.7926,148.714695 C368.44626,144.972883 371.100158,141.231071 373.753818,137.489259 C374.1331,136.954409 374.512382,136.419678 374.891664,135.884947 C375.335754,135.258738 374.299425,134.664486 373.859161,135.285349 C371.205382,139.027161 368.551602,142.768973 365.897943,146.510785 C365.645088,146.867273 365.435259,147.155698 365.268457,147.376062 C361.962963,142.715439 359.483898,139.219973 357.831262,136.889662 C357.45198,136.354931 357.072698,135.820081 356.693416,135.285349 C356.423662,134.905062 355.930547,134.904824 355.660913,135.285349 C353.009166,139.027161 350.35742,142.768973 347.705554,146.510785 C347.452938,146.867273 347.249554,147.164238 347.095401,147.401682 C343.783249,142.729673 341.299134,139.225666 339.643058,136.889662 C339.264015,136.354931 338.884853,135.820081 338.50581,135.285349 C338.236175,134.904943 337.742941,134.904824 337.473306,135.285349 C334.82144,139.027161 332.169694,142.768973 329.517947,146.510785 C329.301015,146.816917 329.084044,147.123087 328.867078,147.429252 C328.759067,147.581669 326.28992,144.068472 321.459637,136.889662 C320.954485,136.176608 320.575602,135.641837 320.322986,135.285349 C320.053471,134.904943 319.559998,134.904943 319.290602,135.285349 C317.52317,137.779891 314.657083,141.788976 310.69234,147.312605 C307.517124,142.858518 305.045641,139.384203 303.27789,136.889662 C302.898847,136.354931 302.519923,135.820081 302.14088,135.285349 C301.701214,134.664961 300.664047,135.257906 301.108377,135.884947 C303.760243,139.626759 306.41187,143.368571 309.063736,147.110383 Z" id="Fill-1" fill="#393939" mask="url(#mask-2)"></path>
            </g>
        </g>
    </g>
</svg>