<?xml version="1.0" encoding="UTF-8"?>
<svg width="240px" height="120px" viewBox="0 0 240 120" version="1.1" xmlns="http://www.w3.org/2000/svg" xmlns:xlink="http://www.w3.org/1999/xlink">
    <title>logo</title>
    <defs>
        <rect id="path-1" x="0" y="1.13686838e-13" width="240" height="120"></rect>
    </defs>
    <g id="wireframe2_web" stroke="none" stroke-width="1" fill="none" fill-rule="evenodd">
        <g id="Z_Trademark" transform="translate(-630.000000, -514.000000)">
            <g id="Content" transform="translate(180.000000, 474.000000)">
                <g id="2" transform="translate(400.000000, 0.000000)">
                    <g id="logo" transform="translate(50.000000, 40.000000)">
                        <mask id="mask-2" fill="white">
                            <use xlink:href="#path-1"></use>
                        </mask>
                        <use id="Rectangle" fill="#000000" xlink:href="#path-1"></use>
                        <g id="openLooKeng-Logo2" mask="url(#mask-2)" fill="#FFFFFF">
                            <g transform="translate(22.000000, 36.000000)" id="Shape">
                                <path d="M15.1790571,31.1605955 L2.04754342,38.7574194 C1.74021703,38.993852 1.32182287,39.0251744 0.982719157,38.8371356 C0.643615449,38.6490967 0.448581416,38.2776179 0.486352357,37.8917122 L0.486352357,1.031067 C0.447444169,0.13617866 1.26451613,-0.330719603 2.08158809,0.27235732 L17.9366749,9.42064516 C18.5049438,9.74873495 18.85526,10.3548375 18.8558809,11.0110174 L18.8558809,26.9244665 L34.0787097,35.7128536 C34.7061042,36.0727543 34.7644665,36.8168734 34.1857072,37.1719107 L16.6770223,47.2831762 C16.3697768,47.4810615 15.9775395,47.4900319 15.6615687,47.3063995 C15.3455979,47.1227671 15.1592191,46.7775231 15.1790571,46.4126055 L15.1790571,31.1605955 Z M4.1680397,33.2762283 L15.1790571,26.919603 L15.1790571,12.066402 L4.1680397,5.70977667 L4.1680397,33.2762283 Z M18.8607444,31.155732 L18.8607444,41.7582134 L28.0430769,36.4764268 L18.8607444,31.155732 Z"></path>
                                <path d="M40.231067,23.2184615 C40.231067,27.121292 43.3949362,30.2851613 47.2977667,30.2851613 C51.2005973,30.2851613 54.3644772,27.121292 54.3644772,23.2184615 C54.3711816,19.315631 51.2127561,16.1463181 47.3099256,16.1395923 C43.4070951,16.1328879 40.2377821,19.2913134 40.231067,23.1941439 L40.231067,23.2184615 L40.231067,23.2184615 Z M43.3777667,23.2184615 C43.3777667,21.0602204 45.1273668,19.3106203 47.2856079,19.3106203 C49.443849,19.3106203 51.1934491,21.0602204 51.1934491,23.2184615 C51.1934491,25.3767026 49.443849,27.1263027 47.2856079,27.1263027 C45.1273668,27.1263027 43.3777667,25.3767026 43.3777667,23.2184615 L43.3777667,23.2184615 L43.3777667,23.2184615 Z M56.1688337,34.4483375 L59.3349876,34.4483375 L59.3349876,28.4418859 C60.0110174,29.2200496 61.474938,30.2413896 63.8288834,30.2413896 C67.7197022,30.2413896 70.3703226,27.0898263 70.3703226,23.3400496 C70.3703226,20.1447146 68.4249132,16.2247146 63.8045658,16.2247146 C62.0069424,16.1736719 60.2861689,16.9542105 59.1404467,18.3403474 L59.1404467,16.6332506 L56.1834243,16.6332506 L56.1834243,34.4483375 L56.1688337,34.4483375 Z M67.2041687,23.2622333 C67.166731,25.4691235 65.3558309,27.2324682 63.1487258,27.2111776 C60.9416207,27.1898869 59.1650743,25.3919363 59.1702055,23.1847345 C59.175359,20.9775327 60.9602638,19.1878796 63.1674442,19.1768734 C64.2518775,19.1591819 65.2964152,19.5855395 66.0587215,20.3570302 C66.8210277,21.1285209 67.2348458,22.1780895 67.2041687,23.2622333 L67.2041687,23.2622333 Z M85.1408437,24.2981638 C85.4735351,22.0926302 84.7534746,19.8586425 83.1954342,18.262531 C81.8985379,16.9409791 80.1151303,16.2110835 78.2638213,16.2441687 C74.3932235,16.2575991 71.2663714,19.406226 71.2797585,23.2768238 C71.2932319,27.1474217 74.4418587,30.2742738 78.3124566,30.2608437 C79.6591939,30.274611 80.9773087,29.8720424 82.0865509,29.1081886 C83.2830857,28.2825467 84.2113767,27.1242966 84.7566253,25.7766749 L81.5126551,25.7766749 C80.8868443,26.9337759 79.6503999,27.6267906 78.3367742,27.5567246 C76.5324069,27.5567246 74.6599504,26.4040695 74.5140447,24.2884367 L85.1408437,24.2981638 Z M74.5626799,21.866402 C74.684268,20.5727047 75.9585112,18.8899256 78.288139,18.8899256 C80.1144056,18.8010558 81.7214498,20.0850237 82.0379156,21.8858561 L74.5626799,21.866402 Z M86.9208933,29.8279901 L90.0675931,29.8279901 L90.0675931,22.5327047 C90.0675931,20.6797022 90.8408933,19.191464 93.0732506,19.1671464 C95.3056079,19.1428288 95.937866,20.6797022 95.937866,22.6542928 L95.937866,29.8328536 L99.0845658,29.8328536 L99.0845658,21.457866 C99.0845658,19.2060546 97.9075931,16.2441687 93.9632754,16.2247146 C92.3752142,16.1326426 90.8448508,16.8340591 89.8779156,18.0971712 L89.8779156,16.6381141 L86.9208933,16.6381141 L86.9208933,29.8328536 L86.9208933,29.8279901 Z M101.778958,29.8279901 L110.5333,29.8279901 L110.5333,28.0771216 L103.773002,28.0771216 L103.773002,12.0274938 L101.778958,12.0274938 L101.778958,29.8328536 L101.778958,29.8279901 Z M110.343623,23.3449132 L110.343623,23.3449132 C110.343623,19.5548967 113.416038,16.4824814 117.206055,16.4824814 C120.996071,16.4824814 124.068486,19.5548967 124.068486,23.3449132 C124.068486,27.1349296 120.996071,30.2073449 117.206055,30.2073449 C113.416038,30.2073449 110.343623,27.1349296 110.343623,23.3449132 L110.343623,23.3449132 Z M112.094491,23.3449132 L112.094491,23.3692308 C112.101206,26.1895832 114.392997,28.4704868 117.21335,28.4637865 C120.033702,28.4570566 122.314606,26.1652655 122.307906,23.3449132 C122.307906,20.5245608 120.021543,18.2382134 117.201191,18.2382134 C114.380839,18.2382134 112.094491,20.5245608 112.094491,23.3449132 L112.094491,23.3449132 Z M125.347593,23.3449132 C125.347593,27.1416447 128.425452,30.2195037 132.222184,30.2195037 C136.018915,30.2195037 139.096774,27.1416447 139.096774,23.3449132 C138.997745,19.6247056 135.953436,16.6603563 132.231911,16.6603563 C128.510385,16.6603563 125.466077,19.6247056 125.367047,23.3449132 L125.367047,23.3449132 L125.347593,23.3449132 Z M127.103325,23.3449132 C127.103325,20.5245608 129.389672,18.2382134 132.210025,18.2382134 C135.030377,18.2382134 137.316739,20.5245608 137.316739,23.3449132 C137.32344,26.1652655 135.042536,28.4570566 132.222184,28.4637865 C129.401831,28.4704868 127.11004,26.1895832 127.103325,23.3692308 L127.103325,23.3449132 Z M141.582035,29.8133995 L143.551762,29.8133995 L143.551762,21.3995037 L151.221538,29.8377171 L153.687345,29.8377171 L145.497171,20.9131514 L152.952953,12.0420844 L150.769231,12.0420844 L143.551762,20.6456576 L143.551762,12.0420844 L141.582035,12.0420844 L141.582035,29.8328536 L141.582035,29.8133995 Z M166.332506,23.8701737 L154.567643,23.8701737 C154.644506,26.583833 156.902086,28.723967 159.61598,28.6558809 C161.493639,28.7165455 163.232791,27.6719127 164.061241,25.9858065 L165.914243,25.9858065 C165.381361,27.2772455 164.466748,28.3751207 163.292804,29.1325062 C162.19558,29.8341951 160.918352,30.2024965 159.61598,30.1927543 C155.117221,30.1927543 152.807047,26.6083375 152.807047,23.3838213 C152.679649,20.8153257 154.010226,18.3941827 156.246774,17.1248312 C158.483322,15.8554797 161.244221,15.9545076 163.384081,17.3808322 C165.52394,18.8071567 166.677639,21.3174057 166.366551,23.8701737 L166.332506,23.8701737 Z M154.57737,22.4500248 L164.576774,22.4500248 C164.455186,20.1884864 162.271464,17.9804467 159.60139,18.0728536 C157.039271,17.992292 154.848479,19.9010166 154.57737,22.4500248 Z M168.277916,29.8328536 L170.057965,29.8328536 L170.057965,22.7223821 C170.057965,20.0279901 171.682382,18.2187593 174.352457,18.1944417 C177.270571,18.1458065 178.423226,19.9988089 178.423226,22.4646154 L178.423226,29.8328536 L180.178958,29.8328536 L180.178958,22.4743424 C180.178958,19.3276427 178.763672,16.5846154 174.746402,16.5359801 C172.436228,16.4873449 170.855583,17.4697767 169.960695,18.9677419 L169.960695,16.8958809 L168.277916,16.8958809 L168.277916,29.8328536 Z M195.956228,16.8958809 L194.200496,16.8958809 L194.200496,19.1768734 C193.480695,17.8345409 191.506104,16.5359801 188.957618,16.5359801 C185.018164,16.5359801 182.202184,19.5173201 182.202184,23.3886849 C182.202184,27.1141439 184.920893,30.1976179 188.957618,30.1976179 C191.457469,30.1976179 193.295881,29.0790074 194.176179,27.5469975 L194.176179,28.7531514 C194.211514,30.1001299 193.702722,31.4045487 192.764692,32.3718639 C191.826662,33.3391791 190.538495,33.8878182 189.191067,33.8938958 C186.987891,33.8938958 185.499653,32.9211911 184.677717,31.248139 L182.732308,31.248139 C183.54938,33.5826303 185.908189,35.4307692 189.127841,35.4307692 C193.242382,35.4307692 195.936774,32.3472953 195.936774,28.3397519 L195.936774,16.8958809 L195.956228,16.8958809 Z M183.97737,23.3449132 C183.946483,21.9709771 184.478684,20.644149 185.450449,19.6723841 C186.422214,18.7006191 187.749042,18.1684185 189.122978,18.1993052 C190.655152,18.1279057 192.128223,18.7974835 193.081886,19.9988089 C193.840218,20.9720771 194.254171,22.1694618 194.258859,23.4032754 C194.246252,24.7603735 193.725691,26.0635106 192.799801,27.0557816 C191.849174,28.0206066 190.545379,28.554776 189.191067,28.5342928 C187.796865,28.5877584 186.443218,28.0590417 185.45434,27.074776 C184.465462,26.0905104 183.930423,24.7393501 183.97737,23.3449132 Z"></path>
                            </g>
                        </g>
                    </g>
                </g>
            </g>
        </g>
    </g>
</svg>