<?xml version="1.0" encoding="UTF-8"?>
<svg width="240px" height="120px" viewBox="0 0 240 120" version="1.1" xmlns="http://www.w3.org/2000/svg" xmlns:xlink="http://www.w3.org/1999/xlink">
    <title>logo</title>
    <defs>
        <rect id="path-1" x="0" y="1.13686838e-13" width="240" height="120"></rect>
    </defs>
    <g id="wireframe2_web" stroke="none" stroke-width="1" fill="none" fill-rule="evenodd">
        <g id="Z_Trademark" transform="translate(-1030.000000, -829.000000)">
            <g id="Content" transform="translate(180.000000, 474.000000)">
                <g id="6" transform="translate(800.000000, 315.000000)">
                    <g id="logo" transform="translate(50.000000, 40.000000)">
                        <mask id="mask-2" fill="white">
                            <use xlink:href="#path-1"></use>
                        </mask>
                        <use id="Rectangle" fill="#FFFFFF" xlink:href="#path-1"></use>
                        <g id="openLooKeng-Logo6" mask="url(#mask-2)" fill="#030000">
                            <g transform="translate(49.000000, 14.000000)" id="Shape">
                                <path d="M72.1682727,41.3542727 L54.741,51.4362727 C54.3330987,51.7249832 53.7952048,51.7523294 53.3601265,51.5064756 C52.9250482,51.2606219 52.6709535,50.7857392 52.7078182,50.2873636 L52.7078182,1.36836364 C52.6174545,0.180727273 53.7018182,-0.438909091 54.7861818,0.361454545 L75.828,12.5024545 C76.5821687,12.9378735 77.047085,13.7422526 77.0479091,14.6130909 L77.0479091,35.7323636 L97.2506364,47.3957273 C98.0832727,47.8733636 98.1607273,48.8609091 97.3926364,49.3320909 L74.1562727,62.7510909 C73.7485169,63.0137111 73.2279656,63.0256161 72.8086301,62.7819114 C72.3892947,62.5382067 72.1419451,62.0800217 72.1682727,61.5957273 L72.1682727,41.3542727 L72.1682727,41.3542727 Z M57.5551818,44.162 L72.1682727,35.7259091 L72.1682727,16.0137273 L57.5551818,7.57763636 L57.5551818,44.162 Z M77.0543636,41.3478182 L77.0543636,55.4187273 L89.2405455,48.4090909 L77.0543636,41.3478182 Z"></path>
                                <path d="M3.18820491e-15,80.4623636 C-0.0307880284,82.1764717 0.641940339,83.8283682 1.8614885,85.0332818 C3.08103666,86.2381954 4.74093394,86.890933 6.45454545,86.8394545 C9.96938602,86.8394545 12.8187273,83.9901133 12.8187273,80.4752727 C12.8187273,76.9604322 9.96938602,74.1110909 6.45454545,74.1110909 C4.74784261,74.0563203 3.09295291,74.7017414 1.87398583,75.8975481 C0.655018753,77.0933548 -0.0220251265,78.7355606 3.88274482e-15,80.443 L3.88274482e-15,80.443 L3.18820491e-15,80.4623636 Z M2.87227273,80.4623636 C2.93591542,78.5118566 4.55685661,76.9755205 6.50797285,77.016429 C8.45908908,77.0573375 10.0142102,78.6602653 9.99604141,80.6117257 C9.97787263,82.5631862 8.39317605,84.1368811 6.44163636,84.1414549 C5.47566047,84.1419111 4.55074559,83.7508293 3.87811448,83.0575206 C3.20548336,82.3642118 2.84257715,81.4278831 2.87227273,80.4623636 L2.87227273,80.4623636 Z M14.5291818,90.6928182 L17.4272727,90.6928182 L17.4272727,85.2 C18.4955247,86.3077507 19.9885648,86.9026155 21.5259091,86.833 C25.0565455,86.833 27.4834545,83.9671818 27.4834545,80.5462727 C27.4834545,77.6352727 25.7084545,74.0917273 21.5065455,74.0917273 C19.8658687,74.046282 18.2961139,74.7608897 17.253,76.0280909 L17.253,74.4725455 L14.5291818,74.4725455 L14.5291818,90.7057273 L14.5291818,90.6928182 Z M24.5853636,80.4817273 C24.5498727,82.4907853 22.9011915,84.0954851 20.8919082,84.0766532 C18.882625,84.0578214 17.2643106,82.4225019 17.26648,80.4131316 C17.2686537,78.4037613 18.8904989,76.7719435 20.8998182,76.7574545 C21.8894792,76.7394032 22.8433896,77.1272747 23.5396344,77.8308355 C24.2358792,78.5343964 24.6137586,79.492309 24.5853636,80.4817273 L24.5853636,80.4817273 Z M40.9282727,81.4240909 C41.2360415,79.4137275 40.578289,77.3758906 39.1532727,75.9248182 C37.9646881,74.7157658 36.3301771,74.0502863 34.6350909,74.0852727 C31.1866856,74.2064415 28.4573169,77.043422 28.4694811,80.4939338 C28.4817268,83.9444457 31.2310965,86.7620471 34.6802727,86.8588182 C35.908292,86.8727121 37.1103499,86.5051034 38.1205455,85.8067273 C39.2089043,85.058679 40.0547414,84.0086744 40.5539091,82.786 L37.6235455,82.786 C37.0538549,83.8395732 35.9279141,84.4704016 34.7319091,84.4060909 C32.9570902,84.5115164 31.4169538,83.1938442 31.2464545,81.4240909 L40.9282727,81.4240909 Z M31.2916364,79.236 C31.5516002,77.5892635 33.02304,76.4115521 34.6867273,76.5186364 C36.3379834,76.4502197 37.7868492,77.6098632 38.0818182,79.236 L31.2916364,79.236 Z M42.5483636,86.4909091 L45.4206364,86.4909091 L45.4206364,79.8491818 C45.4206364,78.1645455 46.1241818,76.8026364 48.1573636,76.7832727 C50.1905455,76.7639091 50.7391818,78.1645455 50.7391818,79.9589091 L50.7391818,86.4909091 L53.6372727,86.4909091 L53.6372727,78.8616364 C53.6372727,76.8026364 52.5658182,74.1110909 48.9706364,74.0852727 C47.5220244,74.0006684 46.1261349,74.6417615 45.2463636,75.7957273 L45.2463636,74.4596364 L42.5483636,74.4596364 L42.5483636,86.4909091 Z M56.1029091,86.4909091 L64.0871818,86.4909091 L64.0871818,84.8901818 L57.9101818,84.8901818 L57.9101818,70.2770909 L56.09,70.2770909 L56.09,86.4909091 L56.1029091,86.4909091 Z M63.9,80.5914545 L63.9,80.5914545 C63.8843126,78.054514 65.4011465,75.7588802 67.740992,74.7783518 C70.0808376,73.7978233 72.7811129,74.3262485 74.5787453,76.1164527 C76.3763777,77.9066568 76.9159795,80.6047209 75.9451483,82.9486065 C74.974317,85.2924922 72.6849837,86.8188188 70.148,86.8136364 C68.4798003,86.8547145 66.8676111,86.2105406 65.6870486,85.0311976 C64.5064861,83.8518547 63.8606462,82.2403322 63.9,80.5720909 L63.9,80.5914545 Z M65.5007273,80.5914545 L65.5007273,80.5914545 C65.5468701,83.1466407 67.6475118,85.1851084 70.202931,85.1544844 C72.7583503,85.1238605 74.809538,83.0356374 74.7945169,80.4800794 C74.77933,77.9245213 72.7036027,75.8606893 70.148,75.8602727 C68.8958187,75.843818 67.6913,76.3397897 66.8137554,77.2331789 C65.9362108,78.1265681 65.4618704,79.3397681 65.5007273,80.5914545 L65.5007273,80.5914545 Z M77.5771818,80.5914545 C77.5641129,83.125215 79.0810464,85.4165212 81.4186999,86.3940123 C83.7563534,87.3715033 86.4527998,86.8420242 88.2472442,85.0531469 C90.0416886,83.2642696 90.5795435,80.5694814 89.6093207,78.2288019 C88.6390978,75.8881224 86.3525161,74.3640767 83.8187273,74.3692727 C82.1534523,74.3245931 80.5427802,74.9651358 79.3630006,76.1412552 C78.183221,77.3173747 77.5376768,78.9260488 77.5771818,80.5914545 L77.5771818,80.5914545 Z M79.1779091,80.5914545 C79.2134529,78.0327013 81.3108893,75.9841507 83.8697692,76.0089494 C86.4286491,76.0337481 88.4859893,78.1225636 88.4720077,80.681525 C88.457883,83.2404865 86.3777252,85.30658 83.8187273,85.3032727 C82.5711188,85.3177593 81.3713909,84.8236383 80.4958618,83.9347145 C79.6203328,83.0457907 79.144483,81.8386992 79.1779091,80.5914545 L79.1779091,80.5914545 L79.1779091,80.5914545 Z M92.3645455,86.4909091 L94.1589091,86.4909091 L94.1589091,78.7970909 L101.149182,86.4909091 L103.408273,86.4909091 L95.9339091,78.3581818 L102.730545,70.2770909 L100.755455,70.2770909 L94.1589091,78.1 L94.1589091,70.2770909 L92.3645455,70.2770909 L92.3645455,86.4909091 Z M114.955455,81.0561818 L104.195727,81.0561818 C104.283364,83.5211763 106.331721,85.4603647 108.797818,85.413 C110.507945,85.4687777 112.092846,84.5198561 112.851273,82.9860909 L114.542364,82.9860909 C114.056,84.1618406 113.222952,85.1614982 112.154182,85.8519091 C111.151767,86.4899345 109.986012,86.823968 108.797818,86.8136364 C107.140438,86.852666 105.53899,86.2132365 104.364285,85.0434066 C103.189581,83.8735766 102.543498,82.2748008 102.575636,80.6172727 C102.512498,78.3113419 103.735536,76.1612263 105.749836,75.0369931 C107.764136,73.9127599 110.236203,74.0005408 112.165689,75.2648145 C114.095174,76.5290881 115.162627,78.7605371 114.936091,81.0561818 L114.955455,81.0561818 Z M104.240909,79.7652727 L113.354727,79.7652727 C113.055734,77.4767645 111.105776,75.764996 108.797818,75.764996 C106.489861,75.764996 104.539902,77.4767645 104.240909,79.7652727 L104.240909,79.7652727 Z M116.691727,86.4909091 L118.311818,86.4909091 L118.311818,80.0363636 C118.311818,77.5836364 119.796364,75.9312727 122.223273,75.9054545 C124.876091,75.8667273 125.934636,77.5513636 125.934636,79.7781818 L125.934636,86.4909091 L127.535364,86.4909091 L127.535364,79.7846364 C127.535364,76.9123636 126.244455,74.4144545 122.584727,74.3692727 C120.825571,74.2315168 119.138498,75.0950185 118.221455,76.6025455 L118.221455,74.6661818 L116.691727,74.6661818 L116.691727,86.4909091 L116.691727,86.4909091 Z M141.916091,74.6984545 L140.315364,74.6984545 L140.315364,76.8090909 C139.669909,75.5827273 137.862636,74.3950909 135.539,74.3950909 C132.102584,74.3950909 129.316818,77.1808566 129.316818,80.6172727 C129.316818,84.0536889 132.102584,86.8394545 135.539,86.8394545 C137.817455,86.8394545 139.489182,85.8196364 140.289545,84.4319091 L140.289545,85.5291818 C140.32262,86.7594481 139.857369,87.9509168 138.999363,88.833229 C138.141357,89.7155411 136.963347,90.2138856 135.732636,90.2151818 C133.996482,90.3385915 132.363035,89.3821144 131.621091,87.8076364 L129.865455,87.8076364 C130.784939,90.1913182 133.121933,91.7233479 135.674545,91.6158182 C139.424636,91.6158182 141.903182,88.8080909 141.903182,85.1612727 L141.903182,74.6984545 L141.916091,74.6984545 Z M131.027273,80.5720909 C130.998741,79.3207578 131.483276,78.112206 132.368332,77.2271499 C133.253388,76.3420938 134.46194,75.8575593 135.713273,75.8860909 C137.105453,75.8232889 138.44302,76.4332388 139.308455,77.5255455 C139.997705,78.4092628 140.374514,79.4965615 140.379909,80.6172727 C140.378442,81.8493 139.918236,83.0366315 139.089,83.9478182 C137.730615,85.2941992 135.695213,85.6903012 133.931056,84.9515867 C132.166898,84.2128722 131.021022,82.4846578 131.027273,80.5720909 L131.027273,80.5720909 Z"></path>
                            </g>
                        </g>
                    </g>
                </g>
            </g>
        </g>
    </g>
</svg>