<?xml version="1.0" encoding="UTF-8"?>
<svg width="20px" height="20px" viewBox="0 0 20 20" version="1.1" xmlns="http://www.w3.org/2000/svg" xmlns:xlink="http://www.w3.org/1999/xlink">
    <title>Post_Black</title>
    <g id="Post_Black" stroke="none" stroke-width="1" fill="none" fill-rule="evenodd">
        <path d="M10.3469675,1.6446328 L10.3469675,2.97966105 L3.39116126,2.97966105 L3.39116126,16.9974576 C3.39116126,17.3661155 3.70258331,17.6649718 4.08674189,17.6649718 L4.08674189,17.6649718 L15.2160319,17.6649718 C15.6001905,17.6649718 15.9116126,17.3661155 15.9116126,16.9974576 L15.9116126,16.9974576 L15.9116126,8.31977403 L17.3027738,8.31977403 L17.3027738,16.9974576 C17.3027738,18.1034312 16.3685077,19 15.2160319,19 L15.2160319,19 L4.08674189,19 C2.93426617,19 2,18.1034312 2,16.9974576 L2,16.9974576 L2,1.6446328 L10.3469675,1.6446328 Z M14.4369816,1.56453111 C15.2636191,0.811822964 16.5596061,0.811822964 17.3862435,1.56453111 C17.7791517,1.94027856 18,2.45068652 18,2.98299862 C18,3.51531071 17.7791517,4.02571868 17.3862435,4.40146613 L17.3862435,4.40146613 L13.3031852,8.31977403 L9.65138692,9.02066386 L10.3469675,5.48283901 Z M13.9431194,3.92085596 L11.6337917,6.14367799 L11.3903385,7.31850285 L12.6145604,7.0848729 L14.9308439,4.86872602 L13.9431194,3.92085596 Z M15.9116126,2.30827646 C15.7261447,2.30827646 15.5483571,2.37935715 15.4177503,2.50572602 L15.4177503,2.50572602 L14.9308439,2.97966105 L15.9116126,3.92085596 L16.4054748,3.45359608 C16.537157,3.32825922 16.6112264,3.15764537 16.6112264,2.97966105 C16.6112264,2.80167673 16.537157,2.63106288 16.4054748,2.50572602 C16.274868,2.37935715 16.0970805,2.30827646 15.9116126,2.30827646 Z" id="Style" fill="#000000"></path>
    </g>
</svg>